<svg width="512" height="512" version="1.0" xmlns="http://www.w3.org/2000/svg" xmlns:xlink="http://www.w3.org/1999/xlink">
 <path d="m256 1.0684-15.869 255.34 15.869 255.34 15.869-255.34-15.869-255.34zm-153.07 155.48c-1.3788-0.04682-3.1747 0.23787-5.3848 0.99414-7.1417 2.456-37.545 10.456-44.094 37.074-6.0179 24.459 26.549 61.381 142.55 77.381l16 208 12-244c-252.47-17.673-123.57-71.316-120-73.904 3.4486-2.2863 3.0659-5.4045-1.0703-5.5449zm306.14 0c-4.1362 0.14046-4.5189 3.2587-1.0703 5.5449 3.5704 2.5885 132.47 56.232-120 73.904l12 244 16-208c116-16 148.57-52.922 142.55-77.381-6.5492-26.619-36.952-34.618-44.094-37.074-2.2101-0.75627-4.006-1.041-5.3848-0.99414z" fill="#b40000"/>
</svg>
