
<svg width="512" height="512" version="1.0" xmlns="http://www.w3.org/2000/svg" xmlns:xlink="http://www.w3.org/1999/xlink">
 <path transform="matrix(.033059 0 0 .53196 247.4 245.77)" d="m260 500-480-480 480-480 480 480z" fill="#b40000" opacity=".5"/>
 <path d="m212 480 12-244c-252.47-17.673-123.57-71.315-120-73.904 4.5981-3.0484 2.3857-7.5774-6.4547-4.5523-7.1417 2.456-37.545 10.456-44.095 37.075-6.0179 24.459 26.549 61.381 142.55 77.381z" fill="#aa0000"/>
 <path d="m300 480-12-244c252.47-17.673 123.57-71.315 120-73.904-4.5981-3.0484-2.3857-7.5774 6.4546-4.5523 7.1417 2.456 37.545 10.456 44.094 37.075 6.0179 24.459-26.549 61.381-142.55 77.381z" fill="#aa0000" opacity=".5"/>
</svg>
